<?xml version="1.0" standalone="no"?>
<!DOCTYPE svg PUBLIC "-//W3C//DTD SVG 20010904//EN"
 "http://www.w3.org/TR/2001/REC-SVG-20010904/DTD/svg10.dtd">
<svg version="1.0" xmlns="http://www.w3.org/2000/svg"
 width="700.000000pt" height="700.000000pt" viewBox="0 0 700.000000 700.000000"
 preserveAspectRatio="xMidYMid meet">
<metadata>
Created by potrace 1.11, written by Peter Selinger 2001-2013
</metadata>
<g transform="translate(0.000000,700.000000) scale(0.100000,-0.100000)"
fill="#000000" stroke="none">
<path d="M6090 6989 c-160 -30 -308 -108 -419 -221 -29 -29 -190 -242 -359
-473 -168 -231 -329 -451 -357 -490 -29 -38 -157 -214 -285 -390 -193 -266
-254 -349 -318 -435 -6 -8 -1762 -6 -1762 2 0 7 12 12 655 259 242 93 449 173
460 178 18 8 105 42 195 76 19 8 94 36 165 64 72 27 238 91 370 141 132 51
251 99 265 108 162 101 147 347 -25 423 -53 23 -108 29 -153 17 -31 -9 -414
-153 -617 -233 -33 -13 -172 -67 -310 -119 -137 -53 -259 -101 -270 -107 -10
-7 4 11 32 38 105 103 104 257 -3 351 -83 74 -160 79 -313 22 -132 -49 -260
-98 -286 -109 -11 -5 -114 -45 -230 -89 -833 -318 -1116 -428 -1156 -448 -149
-74 -180 -269 -63 -388 36 -36 106 -68 151 -69 18 -1 33 -4 33 -7 0 -4 -33
-18 -72 -32 -150 -55 -1056 -406 -1088 -423 -79 -41 -125 -120 -124 -215 1
-145 119 -252 261 -238 39 4 200 62 541 196 11 4 13 -14 10 -89 l-3 -93 -75
-12 c-69 -11 -159 -36 -184 -52 -6 -3 -17 -7 -24 -8 -8 -2 -22 -10 -31 -18
-10 -9 -21 -16 -25 -16 -16 0 -98 -63 -150 -116 -362 -361 -261 -966 199
-1197 57 -28 181 -67 215 -67 l22 0 -6 -202 c-4 -112 -9 -243 -11 -293 -2 -49
-7 -166 -10 -260 -10 -298 -15 -437 -20 -545 -25 -568 -25 -752 4 -853 68
-246 249 -436 497 -524 l79 -28 1835 -2 c2069 -3 1896 -9 2078 78 87 42 115
62 185 132 95 94 158 192 192 299 42 133 45 185 31 533 -7 186 -16 403 -21
560 -7 204 -15 449 -20 560 -3 61 -7 191 -11 291 -3 99 -7 192 -8 207 -2 14 0
29 3 34 3 5 40 17 82 26 335 78 571 379 571 727 -1 232 -100 436 -285 584
-103 82 -240 139 -364 152 l-63 7 -1 51 c-2 162 -11 348 -19 395 -26 145 -122
257 -265 311 -55 20 -78 22 -262 23 l-202 0 29 41 c25 37 112 157 233 321 111
151 549 753 630 865 157 217 184 247 255 282 53 26 74 31 133 31 64 -1 79 -5
172 -52 136 -68 208 -68 298 2 87 67 119 199 71 293 -47 93 -198 185 -367 225
-62 15 -254 19 -315 8z m-5095 -3381 c-2 -51 -7 -163 -10 -248 -3 -85 -8 -156
-10 -159 -2 -2 -18 2 -34 9 -46 19 -101 78 -129 138 -21 46 -24 64 -19 118 8
92 47 155 125 205 77 49 82 44 77 -63z m4818 56 c137 -90 153 -286 33 -406
-36 -36 -92 -66 -103 -54 -3 3 -7 43 -9 88 -1 46 -5 157 -8 247 l-6 163 27 -6
c16 -4 45 -18 66 -32z"/>
</g>
</svg>
